<mxfile host="app.diagrams.net" modified="2023-04-12T01:57:47.822Z" agent="Mozilla/5.0 (Windows NT 10.0; Win64; x64) AppleWebKit/537.36 (KHTML, like Gecko) Chrome/112.0.0.0 Safari/537.36 Edg/112.0.1722.34" etag="fXNRxePRdD2xhZSFOff-" version="21.1.5" type="github" pages="2">
  <diagram id="R2lEEEUBdFMjLlhIrx00" name="I2C Comm">
    <mxGraphModel dx="2466" dy="1082" grid="1" gridSize="10" guides="1" tooltips="1" connect="1" arrows="1" fold="1" page="1" pageScale="1" pageWidth="850" pageHeight="1100" math="0" shadow="0" extFonts="Permanent Marker^https://fonts.googleapis.com/css?family=Permanent+Marker">
      <root>
        <mxCell id="0" />
        <mxCell id="1" parent="0" />
        <mxCell id="KiAElQz_tkHWMeR7E1od-42" style="edgeStyle=orthogonalEdgeStyle;rounded=0;orthogonalLoop=1;jettySize=auto;html=1;exitX=1;exitY=0.5;exitDx=0;exitDy=0;entryX=0;entryY=0.5;entryDx=0;entryDy=0;" parent="1" source="KiAElQz_tkHWMeR7E1od-2" target="KiAElQz_tkHWMeR7E1od-3" edge="1">
          <mxGeometry relative="1" as="geometry" />
        </mxCell>
        <mxCell id="KiAElQz_tkHWMeR7E1od-43" style="edgeStyle=orthogonalEdgeStyle;rounded=0;orthogonalLoop=1;jettySize=auto;html=1;entryX=0;entryY=0.5;entryDx=0;entryDy=0;" parent="1" source="KiAElQz_tkHWMeR7E1od-2" target="KiAElQz_tkHWMeR7E1od-41" edge="1">
          <mxGeometry relative="1" as="geometry" />
        </mxCell>
        <mxCell id="KiAElQz_tkHWMeR7E1od-2" value="&lt;font style=&quot;font-size: 36px;&quot;&gt;MCU&lt;/font&gt;" style="rounded=0;whiteSpace=wrap;html=1;fillColor=#dae8fc;strokeColor=#6c8ebf;" parent="1" vertex="1">
          <mxGeometry x="10" y="120" width="440" height="910" as="geometry" />
        </mxCell>
        <mxCell id="KiAElQz_tkHWMeR7E1od-51" style="edgeStyle=orthogonalEdgeStyle;rounded=0;orthogonalLoop=1;jettySize=auto;html=1;entryX=0;entryY=0.5;entryDx=0;entryDy=0;" parent="1" source="KiAElQz_tkHWMeR7E1od-3" target="KiAElQz_tkHWMeR7E1od-44" edge="1">
          <mxGeometry relative="1" as="geometry" />
        </mxCell>
        <mxCell id="KiAElQz_tkHWMeR7E1od-52" style="edgeStyle=orthogonalEdgeStyle;rounded=0;orthogonalLoop=1;jettySize=auto;html=1;entryX=0;entryY=0.5;entryDx=0;entryDy=0;" parent="1" source="KiAElQz_tkHWMeR7E1od-3" edge="1">
          <mxGeometry relative="1" as="geometry">
            <mxPoint x="1490" y="475" as="targetPoint" />
            <Array as="points">
              <mxPoint x="1300" y="340" />
              <mxPoint x="1300" y="475" />
            </Array>
          </mxGeometry>
        </mxCell>
        <mxCell id="KiAElQz_tkHWMeR7E1od-3" value="&lt;font style=&quot;font-size: 36px;&quot;&gt;&lt;font style=&quot;&quot;&gt;CCI1&amp;nbsp;&lt;/font&gt;(I2C channel dedicated for Camera connection)&lt;/font&gt;" style="rounded=0;whiteSpace=wrap;html=1;fillColor=#dae8fc;strokeColor=#6c8ebf;" parent="1" vertex="1">
          <mxGeometry x="570" y="120" width="640" height="440" as="geometry" />
        </mxCell>
        <mxCell id="KiAElQz_tkHWMeR7E1od-49" style="edgeStyle=orthogonalEdgeStyle;rounded=0;orthogonalLoop=1;jettySize=auto;html=1;entryX=0;entryY=0.5;entryDx=0;entryDy=0;" parent="1" source="KiAElQz_tkHWMeR7E1od-41" edge="1">
          <mxGeometry relative="1" as="geometry">
            <mxPoint x="1490" y="675" as="targetPoint" />
            <Array as="points">
              <mxPoint x="1310" y="810" />
              <mxPoint x="1310" y="675" />
            </Array>
          </mxGeometry>
        </mxCell>
        <mxCell id="KiAElQz_tkHWMeR7E1od-50" style="edgeStyle=orthogonalEdgeStyle;rounded=0;orthogonalLoop=1;jettySize=auto;html=1;entryX=0;entryY=0.5;entryDx=0;entryDy=0;" parent="1" source="KiAElQz_tkHWMeR7E1od-41" edge="1">
          <mxGeometry relative="1" as="geometry">
            <mxPoint x="1490" y="940" as="targetPoint" />
            <Array as="points">
              <mxPoint x="1310" y="810" />
              <mxPoint x="1310" y="940" />
            </Array>
          </mxGeometry>
        </mxCell>
        <mxCell id="KiAElQz_tkHWMeR7E1od-41" value="&lt;font style=&quot;font-size: 36px;&quot;&gt;&lt;font style=&quot;&quot;&gt;CCI2&amp;nbsp;&lt;/font&gt;(I2C channel dedicated for Camera connection)&lt;/font&gt;" style="rounded=0;whiteSpace=wrap;html=1;fillColor=#dae8fc;strokeColor=#6c8ebf;" parent="1" vertex="1">
          <mxGeometry x="570" y="590" width="640" height="440" as="geometry" />
        </mxCell>
        <mxCell id="KiAElQz_tkHWMeR7E1od-64" style="edgeStyle=orthogonalEdgeStyle;rounded=0;orthogonalLoop=1;jettySize=auto;html=1;" parent="1" source="KiAElQz_tkHWMeR7E1od-44" target="KiAElQz_tkHWMeR7E1od-53" edge="1">
          <mxGeometry relative="1" as="geometry" />
        </mxCell>
        <mxCell id="KiAElQz_tkHWMeR7E1od-44" value="&lt;font style=&quot;font-size: 36px;&quot;&gt;CSI0&lt;/font&gt;" style="rounded=0;whiteSpace=wrap;html=1;fillColor=#bac8d3;strokeColor=#23445d;" parent="1" vertex="1">
          <mxGeometry x="1390" y="120" width="430" height="180" as="geometry" />
        </mxCell>
        <mxCell id="KiAElQz_tkHWMeR7E1od-53" value="&lt;font style=&quot;font-size: 36px;&quot;&gt;DES 0x90&lt;/font&gt;" style="rounded=0;whiteSpace=wrap;html=1;fillColor=#bac8d3;strokeColor=#23445d;" parent="1" vertex="1">
          <mxGeometry x="1940" y="120" width="430" height="180" as="geometry" />
        </mxCell>
        <mxCell id="KiAElQz_tkHWMeR7E1od-54" value="&lt;font style=&quot;font-size: 36px;&quot;&gt;DES 0x94&lt;/font&gt;" style="rounded=0;whiteSpace=wrap;html=1;fillColor=#bac8d3;strokeColor=#23445d;" parent="1" vertex="1">
          <mxGeometry x="1940" y="380" width="430" height="180" as="geometry" />
        </mxCell>
        <mxCell id="xrWONOLO_1COb4LZMA2v-2" style="rounded=0;orthogonalLoop=1;jettySize=auto;html=1;exitX=1;exitY=0.5;exitDx=0;exitDy=0;entryX=0;entryY=0.5;entryDx=0;entryDy=0;dashed=1;endArrow=none;endFill=0;" parent="1" source="KiAElQz_tkHWMeR7E1od-55" target="xrWONOLO_1COb4LZMA2v-1" edge="1">
          <mxGeometry relative="1" as="geometry" />
        </mxCell>
        <mxCell id="KiAElQz_tkHWMeR7E1od-55" value="&lt;font style=&quot;font-size: 36px;&quot;&gt;DES 0x90&lt;/font&gt;" style="rounded=0;whiteSpace=wrap;html=1;fillColor=#fff2cc;strokeColor=#d6b656;gradientColor=#ffd966;" parent="1" vertex="1">
          <mxGeometry x="1940" y="590" width="430" height="180" as="geometry" />
        </mxCell>
        <mxCell id="KiAElQz_tkHWMeR7E1od-63" style="edgeStyle=orthogonalEdgeStyle;rounded=0;orthogonalLoop=1;jettySize=auto;html=1;entryX=0;entryY=0.5;entryDx=0;entryDy=0;" parent="1" source="KiAElQz_tkHWMeR7E1od-57" target="KiAElQz_tkHWMeR7E1od-54" edge="1">
          <mxGeometry relative="1" as="geometry" />
        </mxCell>
        <mxCell id="KiAElQz_tkHWMeR7E1od-57" value="&lt;font style=&quot;font-size: 36px;&quot;&gt;CSI1&lt;/font&gt;" style="rounded=0;whiteSpace=wrap;html=1;fillColor=#bac8d3;strokeColor=#23445d;" parent="1" vertex="1">
          <mxGeometry x="1390" y="380" width="430" height="180" as="geometry" />
        </mxCell>
        <mxCell id="KiAElQz_tkHWMeR7E1od-62" style="edgeStyle=orthogonalEdgeStyle;rounded=0;orthogonalLoop=1;jettySize=auto;html=1;entryX=0;entryY=0.5;entryDx=0;entryDy=0;" parent="1" source="KiAElQz_tkHWMeR7E1od-58" target="KiAElQz_tkHWMeR7E1od-55" edge="1">
          <mxGeometry relative="1" as="geometry" />
        </mxCell>
        <mxCell id="KiAElQz_tkHWMeR7E1od-58" value="&lt;font style=&quot;font-size: 36px;&quot;&gt;CSI2&lt;/font&gt;" style="rounded=0;whiteSpace=wrap;html=1;fillColor=#dae8fc;strokeColor=#6c8ebf;" parent="1" vertex="1">
          <mxGeometry x="1390" y="590" width="430" height="180" as="geometry" />
        </mxCell>
        <mxCell id="KiAElQz_tkHWMeR7E1od-61" style="edgeStyle=orthogonalEdgeStyle;rounded=0;orthogonalLoop=1;jettySize=auto;html=1;exitX=1;exitY=0.5;exitDx=0;exitDy=0;entryX=0;entryY=0.5;entryDx=0;entryDy=0;" parent="1" source="KiAElQz_tkHWMeR7E1od-59" target="KiAElQz_tkHWMeR7E1od-60" edge="1">
          <mxGeometry relative="1" as="geometry" />
        </mxCell>
        <mxCell id="KiAElQz_tkHWMeR7E1od-59" value="&lt;font style=&quot;font-size: 36px;&quot;&gt;CSI3&lt;/font&gt;" style="rounded=0;whiteSpace=wrap;html=1;fillColor=#dae8fc;strokeColor=#6c8ebf;" parent="1" vertex="1">
          <mxGeometry x="1390" y="850" width="430" height="180" as="geometry" />
        </mxCell>
        <mxCell id="KiAElQz_tkHWMeR7E1od-67" style="edgeStyle=orthogonalEdgeStyle;rounded=0;orthogonalLoop=1;jettySize=auto;html=1;entryX=0;entryY=0.5;entryDx=0;entryDy=0;" parent="1" source="KiAElQz_tkHWMeR7E1od-60" target="KiAElQz_tkHWMeR7E1od-65" edge="1">
          <mxGeometry relative="1" as="geometry">
            <mxPoint x="2455" y="940" as="targetPoint" />
          </mxGeometry>
        </mxCell>
        <mxCell id="xrWONOLO_1COb4LZMA2v-3" style="rounded=0;orthogonalLoop=1;jettySize=auto;html=1;exitX=1;exitY=0;exitDx=0;exitDy=0;entryX=0;entryY=1;entryDx=0;entryDy=0;dashed=1;endArrow=none;endFill=0;" parent="1" source="KiAElQz_tkHWMeR7E1od-60" target="xrWONOLO_1COb4LZMA2v-1" edge="1">
          <mxGeometry relative="1" as="geometry" />
        </mxCell>
        <mxCell id="KiAElQz_tkHWMeR7E1od-60" value="&lt;span style=&quot;font-size: 36px;&quot;&gt;DES 0x94&lt;/span&gt;" style="rounded=0;whiteSpace=wrap;html=1;fillColor=#fff2cc;strokeColor=#d6b656;gradientColor=#ffd966;" parent="1" vertex="1">
          <mxGeometry x="1940" y="850" width="430" height="180" as="geometry" />
        </mxCell>
        <mxCell id="KiAElQz_tkHWMeR7E1od-68" style="edgeStyle=orthogonalEdgeStyle;rounded=0;orthogonalLoop=1;jettySize=auto;html=1;" parent="1" source="KiAElQz_tkHWMeR7E1od-65" target="KiAElQz_tkHWMeR7E1od-66" edge="1">
          <mxGeometry relative="1" as="geometry" />
        </mxCell>
        <mxCell id="xrWONOLO_1COb4LZMA2v-5" style="rounded=0;orthogonalLoop=1;jettySize=auto;html=1;exitX=0.5;exitY=0;exitDx=0;exitDy=0;entryX=0.25;entryY=1;entryDx=0;entryDy=0;endArrow=none;endFill=0;dashed=1;" parent="1" source="KiAElQz_tkHWMeR7E1od-65" target="xrWONOLO_1COb4LZMA2v-4" edge="1">
          <mxGeometry relative="1" as="geometry" />
        </mxCell>
        <mxCell id="KiAElQz_tkHWMeR7E1od-65" value="&lt;span style=&quot;font-size: 36px;&quot;&gt;SER 0x80&lt;/span&gt;" style="rounded=0;whiteSpace=wrap;html=1;fillColor=#fff2cc;strokeColor=#d6b656;gradientColor=#ffd966;" parent="1" vertex="1">
          <mxGeometry x="2460" y="850" width="330" height="180" as="geometry" />
        </mxCell>
        <mxCell id="xrWONOLO_1COb4LZMA2v-6" style="rounded=0;orthogonalLoop=1;jettySize=auto;html=1;entryX=0.75;entryY=1;entryDx=0;entryDy=0;endArrow=none;endFill=0;dashed=1;" parent="1" source="KiAElQz_tkHWMeR7E1od-66" target="xrWONOLO_1COb4LZMA2v-4" edge="1">
          <mxGeometry relative="1" as="geometry" />
        </mxCell>
        <mxCell id="KiAElQz_tkHWMeR7E1od-66" value="&lt;span style=&quot;font-size: 36px;&quot;&gt;SENSOR 0x6C&lt;/span&gt;" style="rounded=0;whiteSpace=wrap;html=1;fillColor=#fff2cc;strokeColor=#d6b656;gradientColor=#ffd966;" parent="1" vertex="1">
          <mxGeometry x="2865" y="850" width="330" height="180" as="geometry" />
        </mxCell>
        <mxCell id="KiAElQz_tkHWMeR7E1od-69" value="&lt;font style=&quot;font-size: 36px;&quot;&gt;Annotation&lt;/font&gt;" style="text;html=1;align=center;verticalAlign=middle;resizable=0;points=[];autosize=1;strokeColor=none;fillColor=none;" parent="1" vertex="1">
          <mxGeometry x="2770" y="10" width="200" height="60" as="geometry" />
        </mxCell>
        <mxCell id="KiAElQz_tkHWMeR7E1od-70" value="&lt;font style=&quot;font-size: 36px;&quot;&gt;Not in used&lt;/font&gt;" style="rounded=0;whiteSpace=wrap;html=1;fillColor=#bac8d3;strokeColor=#23445d;" parent="1" vertex="1">
          <mxGeometry x="3050" width="230" height="90" as="geometry" />
        </mxCell>
        <mxCell id="KiAElQz_tkHWMeR7E1od-72" value="&lt;font style=&quot;font-size: 36px;&quot;&gt;In use, but developed&lt;/font&gt;" style="rounded=0;whiteSpace=wrap;html=1;fillColor=#b1ddf0;strokeColor=#10739e;" parent="1" vertex="1">
          <mxGeometry x="3050" y="110" width="230" height="90" as="geometry" />
        </mxCell>
        <mxCell id="KiAElQz_tkHWMeR7E1od-73" value="&lt;span style=&quot;font-size: 36px;&quot;&gt;Implemented feature&lt;/span&gt;" style="rounded=0;whiteSpace=wrap;html=1;fillColor=#fff2cc;strokeColor=#d6b656;gradientColor=#ffd966;" parent="1" vertex="1">
          <mxGeometry x="3050" y="230" width="230" height="90" as="geometry" />
        </mxCell>
        <mxCell id="xrWONOLO_1COb4LZMA2v-1" value="&lt;h1&gt;&lt;span style=&quot;font-size: 48px;&quot;&gt;Configuring adaptation&lt;/span&gt;&lt;/h1&gt;&lt;p&gt;&lt;span style=&quot;font-size: 24px;&quot;&gt;Configure Deserializer such that it can establish the connection with the serializer&lt;/span&gt;&lt;/p&gt;" style="text;html=1;strokeColor=default;fillColor=none;spacing=5;spacingTop=-20;whiteSpace=wrap;overflow=hidden;rounded=0;" parent="1" vertex="1">
          <mxGeometry x="2480" y="360" width="550" height="160" as="geometry" />
        </mxCell>
        <mxCell id="xrWONOLO_1COb4LZMA2v-4" value="&lt;h1&gt;&lt;span style=&quot;font-size: 48px;&quot;&gt;New module implementation&lt;/span&gt;&lt;/h1&gt;&lt;p&gt;&lt;font style=&quot;font-size: 24px;&quot;&gt;Provide APIs and configuration to initialize the camera enable, disable camera streaming, direct image data flowing path, form up formula to calculate the sensor exposure time and gain&amp;nbsp;&lt;/font&gt;&lt;/p&gt;" style="text;html=1;strokeColor=default;fillColor=none;spacing=5;spacingTop=-20;whiteSpace=wrap;overflow=hidden;rounded=0;" parent="1" vertex="1">
          <mxGeometry x="2700" y="540" width="660" height="230" as="geometry" />
        </mxCell>
      </root>
    </mxGraphModel>
  </diagram>
  <diagram id="kuINUVUh7RrdbHp7EJ1i" name="Overall implementation">
    <mxGraphModel dx="3686" dy="1082" grid="1" gridSize="10" guides="1" tooltips="1" connect="1" arrows="1" fold="1" page="1" pageScale="1" pageWidth="850" pageHeight="1100" math="0" shadow="0">
      <root>
        <mxCell id="0" />
        <mxCell id="1" parent="0" />
        <mxCell id="WOUnjiXhEB_gx9KpPOGU-8" style="edgeStyle=orthogonalEdgeStyle;rounded=0;orthogonalLoop=1;jettySize=auto;html=1;" edge="1" parent="1" source="WOUnjiXhEB_gx9KpPOGU-1">
          <mxGeometry relative="1" as="geometry">
            <mxPoint x="320" y="578" as="targetPoint" />
          </mxGeometry>
        </mxCell>
        <mxCell id="WOUnjiXhEB_gx9KpPOGU-1" value="&lt;font style=&quot;font-size: 24px;&quot;&gt;QNX Operating system&lt;/font&gt;" style="rounded=0;whiteSpace=wrap;html=1;fillColor=#dae8fc;strokeColor=#6c8ebf;align=right;" vertex="1" parent="1">
          <mxGeometry x="-30" y="648" width="700" height="210" as="geometry" />
        </mxCell>
        <mxCell id="WOUnjiXhEB_gx9KpPOGU-4" value="&lt;font style=&quot;font-size: 24px;&quot;&gt;I2C Driver&lt;/font&gt;" style="rounded=0;whiteSpace=wrap;html=1;fillColor=#e1d5e7;strokeColor=#9673a6;" vertex="1" parent="1">
          <mxGeometry x="220" y="723" width="180" height="60" as="geometry" />
        </mxCell>
        <mxCell id="WOUnjiXhEB_gx9KpPOGU-5" value="&lt;font style=&quot;font-size: 24px;&quot;&gt;CSI Driver&lt;/font&gt;" style="rounded=0;whiteSpace=wrap;html=1;fillColor=#e1d5e7;strokeColor=#9673a6;" vertex="1" parent="1">
          <mxGeometry x="-5" y="723" width="180" height="60" as="geometry" />
        </mxCell>
        <mxCell id="WOUnjiXhEB_gx9KpPOGU-7" style="edgeStyle=orthogonalEdgeStyle;rounded=0;orthogonalLoop=1;jettySize=auto;html=1;entryX=0.5;entryY=0;entryDx=0;entryDy=0;" edge="1" parent="1" source="WOUnjiXhEB_gx9KpPOGU-6" target="WOUnjiXhEB_gx9KpPOGU-1">
          <mxGeometry relative="1" as="geometry" />
        </mxCell>
        <mxCell id="4LTqYCQa8cZiIoZKNROt-2" style="edgeStyle=orthogonalEdgeStyle;rounded=0;orthogonalLoop=1;jettySize=auto;html=1;entryX=1;entryY=0.5;entryDx=0;entryDy=0;exitX=0;exitY=0.75;exitDx=0;exitDy=0;" edge="1" parent="1" source="WOUnjiXhEB_gx9KpPOGU-6" target="WOUnjiXhEB_gx9KpPOGU-20">
          <mxGeometry relative="1" as="geometry" />
        </mxCell>
        <mxCell id="WOUnjiXhEB_gx9KpPOGU-6" value="&lt;font style=&quot;font-size: 24px;&quot;&gt;AIS Server&lt;/font&gt;" style="rounded=0;whiteSpace=wrap;html=1;fillColor=#ffe6cc;strokeColor=#d79b00;align=right;" vertex="1" parent="1">
          <mxGeometry x="-30" y="368" width="700" height="210" as="geometry" />
        </mxCell>
        <mxCell id="WOUnjiXhEB_gx9KpPOGU-9" value="&lt;font style=&quot;font-size: 24px;&quot;&gt;Image Engine&lt;/font&gt;" style="rounded=0;whiteSpace=wrap;html=1;fillColor=#ffe6cc;strokeColor=#d79b00;" vertex="1" parent="1">
          <mxGeometry x="5" y="388" width="160" height="40" as="geometry" />
        </mxCell>
        <mxCell id="WOUnjiXhEB_gx9KpPOGU-10" value="&lt;font style=&quot;font-size: 24px;&quot;&gt;Buffer Mngr&lt;/font&gt;" style="rounded=0;whiteSpace=wrap;html=1;fillColor=#ffe6cc;strokeColor=#d79b00;" vertex="1" parent="1">
          <mxGeometry x="200" y="388" width="160" height="40" as="geometry" />
        </mxCell>
        <mxCell id="_g3wWl5dobbrQ753ZeRm-4" style="rounded=0;orthogonalLoop=1;jettySize=auto;html=1;exitX=0.75;exitY=0;exitDx=0;exitDy=0;entryX=0.5;entryY=1;entryDx=0;entryDy=0;dashed=1;endArrow=none;endFill=0;" edge="1" parent="1" source="WOUnjiXhEB_gx9KpPOGU-11" target="_g3wWl5dobbrQ753ZeRm-2">
          <mxGeometry relative="1" as="geometry" />
        </mxCell>
        <mxCell id="WOUnjiXhEB_gx9KpPOGU-11" value="&lt;font style=&quot;font-size: 24px;&quot;&gt;CameraConfig&lt;/font&gt;" style="rounded=0;whiteSpace=wrap;html=1;fillColor=#fff2cc;strokeColor=#d6b656;gradientColor=#ffd966;" vertex="1" parent="1">
          <mxGeometry x="400" y="388" width="160" height="40" as="geometry" />
        </mxCell>
        <mxCell id="WOUnjiXhEB_gx9KpPOGU-13" value="&lt;font style=&quot;font-size: 18px;&quot;&gt;Deserializer Driver&lt;/font&gt;" style="swimlane;fontStyle=0;childLayout=stackLayout;horizontal=1;startSize=30;horizontalStack=0;resizeParent=1;resizeParentMax=0;resizeLast=0;collapsible=1;marginBottom=0;whiteSpace=wrap;html=1;fillColor=#f0a30a;strokeColor=#BD7000;fontColor=#000000;" vertex="1" parent="1">
          <mxGeometry x="340" y="448" width="200" height="90" as="geometry" />
        </mxCell>
        <mxCell id="WOUnjiXhEB_gx9KpPOGU-14" value="&lt;font style=&quot;font-size: 18px;&quot;&gt;DES 0x90&lt;/font&gt;" style="text;strokeColor=#d79b00;fillColor=#ffe6cc;align=left;verticalAlign=middle;spacingLeft=4;spacingRight=4;overflow=hidden;points=[[0,0.5],[1,0.5]];portConstraint=eastwest;rotatable=0;whiteSpace=wrap;html=1;" vertex="1" parent="WOUnjiXhEB_gx9KpPOGU-13">
          <mxGeometry y="30" width="200" height="30" as="geometry" />
        </mxCell>
        <mxCell id="WOUnjiXhEB_gx9KpPOGU-15" value="&lt;font style=&quot;font-size: 18px;&quot;&gt;DES 0x94&lt;/font&gt;" style="text;strokeColor=#d6b656;fillColor=#fff2cc;align=left;verticalAlign=middle;spacingLeft=4;spacingRight=4;overflow=hidden;points=[[0,0.5],[1,0.5]];portConstraint=eastwest;rotatable=0;whiteSpace=wrap;html=1;gradientColor=#ffd966;" vertex="1" parent="WOUnjiXhEB_gx9KpPOGU-13">
          <mxGeometry y="60" width="200" height="30" as="geometry" />
        </mxCell>
        <mxCell id="_g3wWl5dobbrQ753ZeRm-6" style="rounded=0;orthogonalLoop=1;jettySize=auto;html=1;exitX=0.25;exitY=1;exitDx=0;exitDy=0;entryX=0.75;entryY=0;entryDx=0;entryDy=0;dashed=1;endArrow=none;endFill=0;" edge="1" parent="1" source="WOUnjiXhEB_gx9KpPOGU-17" target="_g3wWl5dobbrQ753ZeRm-1">
          <mxGeometry relative="1" as="geometry" />
        </mxCell>
        <mxCell id="WOUnjiXhEB_gx9KpPOGU-17" value="&lt;font style=&quot;font-size: 18px;&quot;&gt;Serializer + Sensor Driver&lt;/font&gt;" style="swimlane;fontStyle=0;childLayout=stackLayout;horizontal=1;startSize=30;horizontalStack=0;resizeParent=1;resizeParentMax=0;resizeLast=0;collapsible=1;marginBottom=0;whiteSpace=wrap;html=1;fillColor=#f0a30a;strokeColor=#BD7000;fontColor=#000000;" vertex="1" parent="1">
          <mxGeometry x="80" y="448" width="230" height="90" as="geometry">
            <mxRectangle x="-100" y="450" width="250" height="40" as="alternateBounds" />
          </mxGeometry>
        </mxCell>
        <mxCell id="WOUnjiXhEB_gx9KpPOGU-18" value="&lt;font style=&quot;font-size: 18px;&quot;&gt;Ser 0xXX + other Cam&lt;/font&gt;" style="text;strokeColor=#d79b00;fillColor=#ffe6cc;align=left;verticalAlign=middle;spacingLeft=4;spacingRight=4;overflow=hidden;points=[[0,0.5],[1,0.5]];portConstraint=eastwest;rotatable=0;whiteSpace=wrap;html=1;" vertex="1" parent="WOUnjiXhEB_gx9KpPOGU-17">
          <mxGeometry y="30" width="230" height="30" as="geometry" />
        </mxCell>
        <mxCell id="WOUnjiXhEB_gx9KpPOGU-19" value="&lt;font style=&quot;font-size: 18px;&quot;&gt;Ser + 5MP Cam&lt;/font&gt;" style="text;strokeColor=#d6b656;fillColor=#fff2cc;align=left;verticalAlign=middle;spacingLeft=4;spacingRight=4;overflow=hidden;points=[[0,0.5],[1,0.5]];portConstraint=eastwest;rotatable=0;whiteSpace=wrap;html=1;gradientColor=#ffd966;" vertex="1" parent="WOUnjiXhEB_gx9KpPOGU-17">
          <mxGeometry y="60" width="230" height="30" as="geometry" />
        </mxCell>
        <mxCell id="4LTqYCQa8cZiIoZKNROt-1" style="edgeStyle=orthogonalEdgeStyle;rounded=0;orthogonalLoop=1;jettySize=auto;html=1;entryX=0;entryY=0.75;entryDx=0;entryDy=0;" edge="1" parent="1" source="WOUnjiXhEB_gx9KpPOGU-20" target="WOUnjiXhEB_gx9KpPOGU-6">
          <mxGeometry relative="1" as="geometry" />
        </mxCell>
        <mxCell id="WOUnjiXhEB_gx9KpPOGU-20" value="&lt;font style=&quot;font-size: 24px;&quot;&gt;libAIS_Client&lt;/font&gt;" style="rounded=0;whiteSpace=wrap;html=1;fillColor=#ffe6cc;strokeColor=#d79b00;" vertex="1" parent="1">
          <mxGeometry x="-290" y="500" width="160" height="50" as="geometry" />
        </mxCell>
        <mxCell id="WOUnjiXhEB_gx9KpPOGU-21" value="&lt;font style=&quot;font-size: 24px;&quot;&gt;Continental DMS&lt;/font&gt;" style="rounded=0;whiteSpace=wrap;html=1;fillColor=#ffe6cc;strokeColor=#d79b00;glass=0;shadow=1;align=right;" vertex="1" parent="1">
          <mxGeometry x="-1580" y="280" width="1240" height="290" as="geometry" />
        </mxCell>
        <mxCell id="WOUnjiXhEB_gx9KpPOGU-22" value="" style="edgeStyle=orthogonalEdgeStyle;rounded=0;orthogonalLoop=1;jettySize=auto;html=1;entryX=0.246;entryY=-0.006;entryDx=0;entryDy=0;entryPerimeter=0;" edge="1" parent="1" source="WOUnjiXhEB_gx9KpPOGU-24" target="WOUnjiXhEB_gx9KpPOGU-28">
          <mxGeometry relative="1" as="geometry" />
        </mxCell>
        <mxCell id="WOUnjiXhEB_gx9KpPOGU-23" value="&lt;font style=&quot;font-size: 18px;&quot;&gt;Algo Data&lt;/font&gt;" style="edgeLabel;html=1;align=center;verticalAlign=middle;resizable=0;points=[];labelBackgroundColor=none;" vertex="1" connectable="0" parent="WOUnjiXhEB_gx9KpPOGU-22">
          <mxGeometry x="-0.0796" relative="1" as="geometry">
            <mxPoint x="40" as="offset" />
          </mxGeometry>
        </mxCell>
        <mxCell id="WOUnjiXhEB_gx9KpPOGU-24" value="&lt;font style=&quot;font-size: 24px;&quot;&gt;3rd Algo Library&lt;/font&gt;" style="rounded=0;whiteSpace=wrap;html=1;fillColor=#dae8fc;strokeColor=#6c8ebf;glass=0;shadow=1;" vertex="1" parent="1">
          <mxGeometry x="-1580" y="130" width="1240" height="90" as="geometry" />
        </mxCell>
        <mxCell id="WOUnjiXhEB_gx9KpPOGU-25" value="&lt;font style=&quot;font-size: 24px;&quot;&gt;DMSD&lt;/font&gt;" style="rounded=0;whiteSpace=wrap;html=1;fillColor=#ffe6cc;align=right;strokeColor=#d79b00;" vertex="1" parent="1">
          <mxGeometry x="-1100" y="400" width="570" height="170" as="geometry" />
        </mxCell>
        <mxCell id="WOUnjiXhEB_gx9KpPOGU-26" value="" style="edgeStyle=orthogonalEdgeStyle;rounded=0;orthogonalLoop=1;jettySize=auto;html=1;entryX=0.617;entryY=0.997;entryDx=0;entryDy=0;entryPerimeter=0;" edge="1" parent="1" source="WOUnjiXhEB_gx9KpPOGU-28" target="WOUnjiXhEB_gx9KpPOGU-24">
          <mxGeometry relative="1" as="geometry" />
        </mxCell>
        <mxCell id="WOUnjiXhEB_gx9KpPOGU-27" value="&lt;font style=&quot;font-size: 18px;&quot;&gt;Img Data&lt;/font&gt;" style="edgeLabel;html=1;align=center;verticalAlign=middle;resizable=0;points=[];labelBackgroundColor=none;" vertex="1" connectable="0" parent="WOUnjiXhEB_gx9KpPOGU-26">
          <mxGeometry x="-0.1525" y="-1" relative="1" as="geometry">
            <mxPoint x="44" y="-4" as="offset" />
          </mxGeometry>
        </mxCell>
        <mxCell id="WOUnjiXhEB_gx9KpPOGU-28" value="&lt;font style=&quot;font-size: 24px;&quot;&gt;Algo Interface Lib&lt;/font&gt;" style="rounded=0;whiteSpace=wrap;html=1;fillColor=#ffe6cc;strokeColor=#d79b00;" vertex="1" parent="1">
          <mxGeometry x="-1100" y="280" width="570" height="80" as="geometry" />
        </mxCell>
        <mxCell id="WOUnjiXhEB_gx9KpPOGU-29" value="&lt;span style=&quot;font-size: 24px;&quot;&gt;Log4cpp&lt;/span&gt;" style="rounded=0;whiteSpace=wrap;html=1;fillColor=#e1d5e7;strokeColor=#9673a6;" vertex="1" parent="1">
          <mxGeometry x="-1580" y="370" width="390" height="200" as="geometry" />
        </mxCell>
        <mxCell id="WOUnjiXhEB_gx9KpPOGU-30" value="" style="edgeStyle=orthogonalEdgeStyle;rounded=0;orthogonalLoop=1;jettySize=auto;html=1;" edge="1" parent="1" source="WOUnjiXhEB_gx9KpPOGU-32" target="WOUnjiXhEB_gx9KpPOGU-37">
          <mxGeometry relative="1" as="geometry" />
        </mxCell>
        <mxCell id="WOUnjiXhEB_gx9KpPOGU-31" value="&lt;font style=&quot;font-size: 18px;&quot;&gt;Img Data&lt;/font&gt;" style="edgeLabel;html=1;align=center;verticalAlign=middle;resizable=0;points=[];labelBackgroundColor=none;" vertex="1" connectable="0" parent="WOUnjiXhEB_gx9KpPOGU-30">
          <mxGeometry x="0.1958" relative="1" as="geometry">
            <mxPoint x="10" y="15" as="offset" />
          </mxGeometry>
        </mxCell>
        <mxCell id="WOUnjiXhEB_gx9KpPOGU-41" style="edgeStyle=orthogonalEdgeStyle;rounded=0;orthogonalLoop=1;jettySize=auto;html=1;entryX=0;entryY=0.5;entryDx=0;entryDy=0;" edge="1" parent="1" source="WOUnjiXhEB_gx9KpPOGU-32" target="WOUnjiXhEB_gx9KpPOGU-20">
          <mxGeometry relative="1" as="geometry" />
        </mxCell>
        <mxCell id="_g3wWl5dobbrQ753ZeRm-5" style="rounded=0;orthogonalLoop=1;jettySize=auto;html=1;entryX=0.5;entryY=0;entryDx=0;entryDy=0;endArrow=none;endFill=0;dashed=1;" edge="1" parent="1" source="WOUnjiXhEB_gx9KpPOGU-32" target="_g3wWl5dobbrQ753ZeRm-1">
          <mxGeometry relative="1" as="geometry" />
        </mxCell>
        <mxCell id="WOUnjiXhEB_gx9KpPOGU-32" value="&lt;font style=&quot;font-size: 24px;&quot;&gt;ImagerImpl&lt;/font&gt;" style="rounded=0;whiteSpace=wrap;html=1;fillColor=#fff2cc;gradientColor=#ffd966;strokeColor=#d6b656;" vertex="1" parent="1">
          <mxGeometry x="-730" y="500" width="180" height="50" as="geometry" />
        </mxCell>
        <mxCell id="WOUnjiXhEB_gx9KpPOGU-33" style="edgeStyle=orthogonalEdgeStyle;rounded=0;orthogonalLoop=1;jettySize=auto;html=1;exitX=0.86;exitY=0.033;exitDx=0;exitDy=0;entryX=0.447;entryY=1.013;entryDx=0;entryDy=0;exitPerimeter=0;entryPerimeter=0;" edge="1" parent="1" source="WOUnjiXhEB_gx9KpPOGU-37" target="WOUnjiXhEB_gx9KpPOGU-28">
          <mxGeometry relative="1" as="geometry" />
        </mxCell>
        <mxCell id="WOUnjiXhEB_gx9KpPOGU-34" value="&lt;font style=&quot;font-size: 18px;&quot;&gt;Img Data&lt;/font&gt;" style="edgeLabel;html=1;align=center;verticalAlign=middle;resizable=0;points=[];labelBackgroundColor=none;" vertex="1" connectable="0" parent="WOUnjiXhEB_gx9KpPOGU-33">
          <mxGeometry x="-0.0887" y="2" relative="1" as="geometry">
            <mxPoint x="47" as="offset" />
          </mxGeometry>
        </mxCell>
        <mxCell id="WOUnjiXhEB_gx9KpPOGU-35" style="edgeStyle=orthogonalEdgeStyle;rounded=0;orthogonalLoop=1;jettySize=auto;html=1;exitX=0;exitY=0.5;exitDx=0;exitDy=0;entryX=1;entryY=0.775;entryDx=0;entryDy=0;entryPerimeter=0;" edge="1" parent="1" source="WOUnjiXhEB_gx9KpPOGU-37" target="WOUnjiXhEB_gx9KpPOGU-29">
          <mxGeometry relative="1" as="geometry" />
        </mxCell>
        <mxCell id="WOUnjiXhEB_gx9KpPOGU-36" value="&lt;font style=&quot;font-size: 18px;&quot;&gt;Img Data&lt;br&gt;Algo Data&lt;/font&gt;" style="edgeLabel;html=1;align=center;verticalAlign=middle;resizable=0;points=[];labelBackgroundColor=none;" vertex="1" connectable="0" parent="WOUnjiXhEB_gx9KpPOGU-35">
          <mxGeometry x="-0.1677" y="2" relative="1" as="geometry">
            <mxPoint x="-22" y="-2" as="offset" />
          </mxGeometry>
        </mxCell>
        <mxCell id="WOUnjiXhEB_gx9KpPOGU-37" value="&lt;font style=&quot;font-size: 24px;&quot;&gt;DataChannel&lt;/font&gt;" style="rounded=0;whiteSpace=wrap;html=1;fillColor=#ffe6cc;strokeColor=#d79b00;" vertex="1" parent="1">
          <mxGeometry x="-1000" y="500" width="180" height="50" as="geometry" />
        </mxCell>
        <mxCell id="WOUnjiXhEB_gx9KpPOGU-38" value="" style="endArrow=classic;html=1;rounded=0;exitX=0.25;exitY=1;exitDx=0;exitDy=0;entryX=0.25;entryY=0;entryDx=0;entryDy=0;" edge="1" parent="1" source="WOUnjiXhEB_gx9KpPOGU-28" target="WOUnjiXhEB_gx9KpPOGU-37">
          <mxGeometry width="50" height="50" relative="1" as="geometry">
            <mxPoint x="-1150" y="350" as="sourcePoint" />
            <mxPoint x="-1100" y="300" as="targetPoint" />
          </mxGeometry>
        </mxCell>
        <mxCell id="WOUnjiXhEB_gx9KpPOGU-39" value="&lt;font style=&quot;font-size: 18px;&quot;&gt;Algo Data&lt;/font&gt;" style="edgeLabel;html=1;align=center;verticalAlign=middle;resizable=0;points=[];labelBackgroundColor=none;" vertex="1" connectable="0" parent="WOUnjiXhEB_gx9KpPOGU-38">
          <mxGeometry x="0.1642" y="-1" relative="1" as="geometry">
            <mxPoint x="-43" as="offset" />
          </mxGeometry>
        </mxCell>
        <mxCell id="WOUnjiXhEB_gx9KpPOGU-40" style="edgeStyle=orthogonalEdgeStyle;rounded=0;orthogonalLoop=1;jettySize=auto;html=1;entryX=1;entryY=0.5;entryDx=0;entryDy=0;" edge="1" parent="1" source="WOUnjiXhEB_gx9KpPOGU-20" target="WOUnjiXhEB_gx9KpPOGU-32">
          <mxGeometry relative="1" as="geometry" />
        </mxCell>
        <mxCell id="WOUnjiXhEB_gx9KpPOGU-42" value="&lt;font style=&quot;font-size: 18px;&quot;&gt;QCarCam APIs&lt;/font&gt;" style="edgeLabel;html=1;align=center;verticalAlign=middle;resizable=0;points=[];labelBackgroundColor=none;" vertex="1" connectable="0" parent="WOUnjiXhEB_gx9KpPOGU-40">
          <mxGeometry x="0.1641" relative="1" as="geometry">
            <mxPoint x="22" y="-20" as="offset" />
          </mxGeometry>
        </mxCell>
        <mxCell id="gpKlO2HJnrf1vm4i5r1j-1" value="&lt;font style=&quot;font-size: 36px;&quot;&gt;Annotation&lt;/font&gt;" style="text;html=1;align=center;verticalAlign=middle;resizable=0;points=[];autosize=1;strokeColor=none;fillColor=none;" vertex="1" parent="1">
          <mxGeometry x="-1690" y="733" width="200" height="60" as="geometry" />
        </mxCell>
        <mxCell id="gpKlO2HJnrf1vm4i5r1j-2" value="&lt;font style=&quot;font-size: 36px;&quot;&gt;Internal&lt;/font&gt;" style="rounded=0;whiteSpace=wrap;html=1;fillColor=#ffe6cc;strokeColor=#d79b00;" vertex="1" parent="1">
          <mxGeometry x="-1470" y="723" width="230" height="90" as="geometry" />
        </mxCell>
        <mxCell id="gpKlO2HJnrf1vm4i5r1j-3" value="&lt;span style=&quot;font-size: 36px;&quot;&gt;3rd party&lt;/span&gt;" style="rounded=0;whiteSpace=wrap;html=1;fillColor=#b1ddf0;strokeColor=#10739e;" vertex="1" parent="1">
          <mxGeometry x="-1470" y="833" width="230" height="90" as="geometry" />
        </mxCell>
        <mxCell id="gpKlO2HJnrf1vm4i5r1j-4" value="&lt;span style=&quot;font-size: 36px;&quot;&gt;Implemented feature&lt;/span&gt;" style="rounded=0;whiteSpace=wrap;html=1;fillColor=#fff2cc;strokeColor=#d6b656;gradientColor=#ffd966;" vertex="1" parent="1">
          <mxGeometry x="-1470" y="953" width="230" height="90" as="geometry" />
        </mxCell>
        <mxCell id="_g3wWl5dobbrQ753ZeRm-1" value="&lt;h1&gt;&lt;span style=&quot;font-size: 48px;&quot;&gt;New module implementation&lt;/span&gt;&lt;/h1&gt;&lt;p&gt;&lt;span style=&quot;font-size: 24px;&quot;&gt;Implemented new Camera driver which has following functionality: power up/down, start/stop streaming, configure exposure/gain&lt;/span&gt;&lt;/p&gt;&lt;p&gt;&lt;span style=&quot;font-size: 24px;&quot;&gt;Implemented a module in the DMS application that can utilize QCarCam APIs to: power up/down the camera, start/stop streaming, allocate memory buffer for image streaming, adjust exposure/gain according to the algorithm.&lt;/span&gt;&lt;/p&gt;" style="text;html=1;strokeColor=default;fillColor=none;spacing=5;spacingTop=-20;whiteSpace=wrap;overflow=hidden;rounded=0;" vertex="1" parent="1">
          <mxGeometry x="-910" y="723" width="680" height="307" as="geometry" />
        </mxCell>
        <mxCell id="_g3wWl5dobbrQ753ZeRm-2" value="&lt;h1&gt;&lt;span style=&quot;font-size: 48px;&quot;&gt;Configuring adaptation&lt;/span&gt;&lt;/h1&gt;&lt;p&gt;&lt;span style=&quot;font-size: 24px;&quot;&gt;Configure Deserializer such that it can establish the connection with the serializer&lt;/span&gt;&lt;/p&gt;" style="text;html=1;strokeColor=default;fillColor=none;spacing=5;spacingTop=-20;whiteSpace=wrap;overflow=hidden;rounded=0;" vertex="1" parent="1">
          <mxGeometry x="280" y="140" width="550" height="160" as="geometry" />
        </mxCell>
        <mxCell id="_g3wWl5dobbrQ753ZeRm-3" style="rounded=0;orthogonalLoop=1;jettySize=auto;html=1;entryX=0.75;entryY=1;entryDx=0;entryDy=0;dashed=1;endArrow=none;endFill=0;" edge="1" parent="1" source="WOUnjiXhEB_gx9KpPOGU-15" target="_g3wWl5dobbrQ753ZeRm-2">
          <mxGeometry relative="1" as="geometry" />
        </mxCell>
        <mxCell id="_g3wWl5dobbrQ753ZeRm-7" value="&lt;span style=&quot;font-size: 36px;&quot;&gt;3rd party&lt;/span&gt;" style="rounded=0;whiteSpace=wrap;html=1;fillColor=#e1d5e7;strokeColor=#9673a6;" vertex="1" parent="1">
          <mxGeometry x="-1230" y="833" width="230" height="90" as="geometry" />
        </mxCell>
        <mxCell id="h2nDP4bIZa_dbGv4k4eN-1" value="&lt;div style=&quot;text-align: left;&quot;&gt;&lt;span style=&quot;font-size: 24px; background-color: initial;&quot;&gt;Programming language:&lt;/span&gt;&lt;/div&gt;&lt;font style=&quot;font-size: 24px;&quot;&gt;&lt;div style=&quot;text-align: left;&quot;&gt;&lt;span style=&quot;background-color: initial;&quot;&gt;- Camera driver: C&lt;/span&gt;&lt;/div&gt;&lt;div style=&quot;text-align: left;&quot;&gt;- Application: C++&lt;/div&gt;&lt;div style=&quot;text-align: left;&quot;&gt;- Application build: bitbake script, CMake&lt;/div&gt;&lt;div style=&quot;text-align: left;&quot;&gt;- Camera driver build: bitbake script&lt;/div&gt;&lt;/font&gt;" style="text;html=1;align=center;verticalAlign=middle;resizable=0;points=[];autosize=1;strokeColor=#b85450;fillColor=#f8cecc;" vertex="1" parent="1">
          <mxGeometry x="370" y="923" width="460" height="160" as="geometry" />
        </mxCell>
      </root>
    </mxGraphModel>
  </diagram>
</mxfile>
